Oprah.Winfrey.2011.04.29.The.Royal.Wedding.Party.720p.x264-Nile

RELEASE INFORMATION

General
Format                           : Matroska
File size                        : 1.09 GiB
Duration                         : 43mn 2s
Overall bit rate                 : 3 627 Kbps
Encoded date                     : UTC 2011-05-03 18:21:02
Writing library                  : libebml v1.2.0 + libmatroska v1.1.0

Video
ID                               : 2
Format                           : AVC
Format/Info                      : Advanced Video Codec
Format profile                   : High@L3.1
Format settings, CABAC           : No
Format settings, ReFrames        : 1 frame
Muxing mode                      : Container profile=Unknown@3.1
Codec ID                         : V_MPEG4/ISO/AVC
Duration                         : 42mn 59s
Bit rate                         : 3 299 Kbps
Width                            : 1 280 pixels
Height                           : 720 pixels
Display aspect ratio             : 16:9
Frame rate                       : 29.970 fps
Standard                         : NTSC
Resolution                       : 24 bits
Colorimetry                      : 4:2:0
Scan type                        : Progressive
Bits/(Pixel*Frame)               : 0.119
Stream size                      : 1 014 MiB (91%)
colour_primaries                 : BT.709-5, BT.1361, IEC 61966-2-4, SMPTE RP177
transfer_characteristics         : BT.709-5, BT.1361
matrix_coefficients              : BT.709-5, BT.1361, IEC 61966-2-4 709, SMPTE RP177

Audio
ID                               : 1
Format                           : MPEG Audio
Format version                   : Version 1
Format profile                   : Layer 3
Codec ID                         : A_MPEG/L3
Codec ID/Hint                    : MP3
Duration                         : 43mn 2s
Bit rate mode                    : Constant
Bit rate                         : 256 Kbps
Channel(s)                       : 2 channels
Sampling rate                    : 48.0 KHz
Resolution                       : 16 bits
Stream size                      : 78.8 MiB (7%)
 
http://www.oprah.com/showinfo/The-Royal-Wedding